<?xml version="1.0" standalone="no"?>
<!DOCTYPE svg PUBLIC "-//W3C//DTD SVG 20010904//EN"
 "http://www.w3.org/TR/2001/REC-SVG-20010904/DTD/svg10.dtd">
<svg version="1.0" xmlns="http://www.w3.org/2000/svg"
 width="700.000000pt" height="700.000000pt" viewBox="0 0 700.000000 700.000000"
 preserveAspectRatio="xMidYMid meet">
<metadata>
Created by potrace 1.14, written by Peter Selinger 2001-2017
</metadata>
<g transform="translate(0.000000,700.000000) scale(0.100000,-0.100000)"
fill="#000000" stroke="none">
<path d="M1505 6696 c-131 -33 -241 -123 -298 -243 l-32 -68 0 -2885 0 -2885
32 -68 c58 -123 177 -217 311 -246 75 -16 3888 -16 3964 0 134 28 252 122 311
246 l32 68 0 2885 0 2885 -32 68 c-59 124 -177 218 -311 246 -81 17 -3909 14
-3977 -3z m1287 -1698 c15 -10 99 -134 196 -290 93 -150 253 -407 355 -571
l185 -298 25 53 c43 91 680 1080 710 1102 27 20 43 21 313 24 193 2 284 0 284
-7 0 -6 -214 -329 -476 -718 -262 -389 -478 -712 -481 -719 -2 -7 216 -361
486 -787 270 -427 494 -782 497 -791 6 -14 -22 -16 -267 -16 -320 1 -352 5
-394 52 -16 18 -189 297 -384 621 l-354 587 -26 -52 c-47 -95 -692 -1112 -729
-1151 -20 -20 -52 -42 -72 -47 -19 -5 -151 -10 -294 -10 -226 0 -257 2 -252
15 3 8 227 358 497 778 271 419 492 767 492 772 0 6 -212 333 -472 727 -259
395 -474 725 -478 734 -5 14 24 15 304 12 272 -3 312 -5 335 -20z"/>
</g>
</svg>
